<?xml version="1.0" standalone="no"?>
<!DOCTYPE svg PUBLIC "-//W3C//DTD SVG 20010904//EN"
 "http://www.w3.org/TR/2001/REC-SVG-20010904/DTD/svg10.dtd">
<svg version="1.0" xmlns="http://www.w3.org/2000/svg"
 width="150.000000pt" height="150.000000pt" viewBox="0 0 150.000000 150.000000"
 preserveAspectRatio="xMidYMid meet">
<metadata>
Created by potrace 1.14, written by Peter Selinger 2001-2017
</metadata>
<g transform="translate(0.000000,150.000000) scale(0.100000,-0.100000)"
fill="#000000" stroke="none">
<path d="M635 1198 c-150 -19 -285 -138 -325 -287 -15 -56 -19 -128 -9 -163 6
-22 3 -31 -12 -42 -24 -17 -59 -83 -59 -112 0 -12 11 -33 25 -46 20 -20 23
-30 17 -48 -16 -42 4 -84 41 -89 9 -1 10 -6 2 -39 -21 -97 79 -130 161 -53 29
27 33 28 47 13 13 -12 21 -13 40 -5 13 6 36 9 51 6 17 -4 33 1 46 12 22 20 32
15 37 -17 2 -12 9 -25 15 -29 13 -9 48 7 48 21 0 5 9 14 20 20 15 8 18 8 14
-3 -3 -8 2 -22 11 -31 13 -13 21 -14 38 -5 12 7 26 18 30 25 7 12 14 11 40 -3
18 -9 48 -17 67 -19 19 -1 42 -5 51 -9 15 -6 59 28 59 45 0 3 9 6 21 7 75 6
129 52 129 109 0 19 3 33 8 33 26 -4 46 5 73 33 40 43 53 76 37 95 -7 8 -17
25 -23 37 -8 14 -20 20 -37 19 -26 -2 -27 0 -27 54 0 31 -4 60 -10 66 -6 6
-11 20 -11 32 1 17 2 18 10 4 14 -24 87 -72 99 -64 20 11 12 77 -14 121 -27
46 -70 82 -113 93 -25 7 -27 10 -24 58 4 55 -11 88 -58 131 -41 37 -56 43 -70
27 -12 -14 -11 -30 6 -84 l7 -25 -31 22 c-31 23 -102 41 -137 36 -11 -2 -24 1
-30 5 -45 35 -176 60 -260 49z"/>
</g>
</svg>
